# xmcd
#
# Track frame offsets: 
#        150
#        14890
#        32557
#        44395
#        62135
#        83380
#        96872
#        113807
#        127987
#        140297
#
# Disc length: 2197 seconds
#
# Revision: 2
# Processed by: cddbd v1.4PL0 Copyright (c) Steve Scherf et al.
# Submitted via: ExactAudioCopy v0.90b3
#
DISCID=7d08930a
DTITLE=Ricky Skaggs - Highways and Heartaches
DYEAR=1900
DGENRE=Country
TTITLE0=Heartbroke
TTITLE1=You've Got A Lover
TTITLE2=Don't Think I'll Cry
TTITLE3=Don't Let Your Sweet Love Die
TTITLE4=Nothing Can Hurt You
TTITLE5=I Wouldn't Change You If I Could
TTITLE6=Can't You Hear Me Callin'
TTITLE7=Highway 40 Blues
TTITLE8=Let's Love The Bad Times Away
TTITLE9=One Way Rider
EXTD=
EXTT0=
EXTT1=
EXTT2=
EXTT3=
EXTT4=
EXTT5=
EXTT6=
EXTT7=
EXTT8=
EXTT9=
PLAYORDER=
